<svg width="368" height="83" viewBox="0 0 368 83" fill="none" xmlns="http://www.w3.org/2000/svg">
<path d="M65 19V67H55.9688V19H65ZM93.8438 33.1875H102V65.875C102 68.9583 101.312 71.5729 99.9375 73.7188C98.5833 75.8854 96.6875 77.5208 94.25 78.625C91.8125 79.75 88.9792 80.3125 85.75 80.3125C84.3333 80.3125 82.8333 80.125 81.25 79.75C79.6875 79.375 78.1875 78.7917 76.75 78C75.3333 77.2083 74.1458 76.2083 73.1875 75L77.1562 69.6875C78.1979 70.8958 79.4062 71.8333 80.7812 72.5C82.1562 73.1875 83.6771 73.5312 85.3438 73.5312C86.9688 73.5312 88.3438 73.2292 89.4688 72.625C90.5938 72.0417 91.4583 71.1771 92.0625 70.0312C92.6667 68.9062 92.9688 67.5417 92.9688 65.9375V41L93.8438 33.1875ZM71.0938 50.5V49.8438C71.0938 47.2604 71.4062 44.9167 72.0312 42.8125C72.6771 40.6875 73.5833 38.8646 74.75 37.3438C75.9375 35.8229 77.375 34.6458 79.0625 33.8125C80.75 32.9792 82.6562 32.5625 84.7812 32.5625C87.0312 32.5625 88.9167 32.9792 90.4375 33.8125C91.9583 34.6458 93.2083 35.8333 94.1875 37.375C95.1667 38.8958 95.9271 40.6979 96.4688 42.7812C97.0312 44.8438 97.4688 47.1042 97.7812 49.5625V51C97.4688 53.3542 97 55.5417 96.375 57.5625C95.75 59.5833 94.9271 61.3542 93.9062 62.875C92.8854 64.375 91.6146 65.5417 90.0938 66.375C88.5938 67.2083 86.8021 67.625 84.7188 67.625C82.6354 67.625 80.75 67.1979 79.0625 66.3438C77.3958 65.4896 75.9688 64.2917 74.7812 62.75C73.5938 61.2083 72.6771 59.3958 72.0312 57.3125C71.4062 55.2292 71.0938 52.9583 71.0938 50.5ZM80.0938 49.8438V50.5C80.0938 51.8958 80.2292 53.1979 80.5 54.4062C80.7708 55.6146 81.1875 56.6875 81.75 57.625C82.3333 58.5417 83.0521 59.2604 83.9062 59.7812C84.7812 60.2812 85.8125 60.5312 87 60.5312C88.6458 60.5312 89.9896 60.1875 91.0312 59.5C92.0729 58.7917 92.8542 57.8229 93.375 56.5938C93.8958 55.3646 94.1979 53.9479 94.2812 52.3438V48.25C94.2396 46.9375 94.0625 45.7604 93.75 44.7188C93.4375 43.6562 93 42.75 92.4375 42C91.875 41.25 91.1458 40.6667 90.25 40.25C89.3542 39.8333 88.2917 39.625 87.0625 39.625C85.875 39.625 84.8438 39.8958 83.9688 40.4375C83.1146 40.9583 82.3958 41.6771 81.8125 42.5938C81.25 43.5104 80.8229 44.5938 80.5312 45.8438C80.2396 47.0729 80.0938 48.4062 80.0938 49.8438ZM107.562 50.4375V49.7812C107.562 47.3021 107.917 45.0208 108.625 42.9375C109.333 40.8333 110.365 39.0104 111.719 37.4688C113.073 35.9271 114.74 34.7292 116.719 33.875C118.698 33 120.969 32.5625 123.531 32.5625C126.094 32.5625 128.375 33 130.375 33.875C132.375 34.7292 134.052 35.9271 135.406 37.4688C136.781 39.0104 137.823 40.8333 138.531 42.9375C139.24 45.0208 139.594 47.3021 139.594 49.7812V50.4375C139.594 52.8958 139.24 55.1771 138.531 57.2812C137.823 59.3646 136.781 61.1875 135.406 62.75C134.052 64.2917 132.385 65.4896 130.406 66.3438C128.427 67.1979 126.156 67.625 123.594 67.625C121.031 67.625 118.75 67.1979 116.75 66.3438C114.771 65.4896 113.094 64.2917 111.719 62.75C110.365 61.1875 109.333 59.3646 108.625 57.2812C107.917 55.1771 107.562 52.8958 107.562 50.4375ZM116.562 49.7812V50.4375C116.562 51.8542 116.688 53.1771 116.938 54.4062C117.188 55.6354 117.583 56.7188 118.125 57.6562C118.688 58.5729 119.417 59.2917 120.312 59.8125C121.208 60.3333 122.302 60.5938 123.594 60.5938C124.844 60.5938 125.917 60.3333 126.812 59.8125C127.708 59.2917 128.427 58.5729 128.969 57.6562C129.51 56.7188 129.906 55.6354 130.156 54.4062C130.427 53.1771 130.562 51.8542 130.562 50.4375V49.7812C130.562 48.4062 130.427 47.1146 130.156 45.9062C129.906 44.6771 129.5 43.5938 128.938 42.6562C128.396 41.6979 127.677 40.9479 126.781 40.4062C125.885 39.8646 124.802 39.5938 123.531 39.5938C122.26 39.5938 121.177 39.8646 120.281 40.4062C119.406 40.9479 118.688 41.6979 118.125 42.6562C117.583 43.5938 117.188 44.6771 116.938 45.9062C116.688 47.1146 116.562 48.4062 116.562 49.7812ZM159.094 60.5938C160.198 60.5938 161.177 60.3854 162.031 59.9688C162.885 59.5312 163.552 58.9271 164.031 58.1562C164.531 57.3646 164.792 56.4375 164.812 55.375H173.281C173.26 57.75 172.625 59.8646 171.375 61.7188C170.125 63.5521 168.448 65 166.344 66.0625C164.24 67.1042 161.885 67.625 159.281 67.625C156.656 67.625 154.365 67.1875 152.406 66.3125C150.469 65.4375 148.854 64.2292 147.562 62.6875C146.271 61.125 145.302 59.3125 144.656 57.25C144.01 55.1667 143.688 52.9375 143.688 50.5625V49.6562C143.688 47.2604 144.01 45.0312 144.656 42.9688C145.302 40.8854 146.271 39.0729 147.562 37.5312C148.854 35.9688 150.469 34.75 152.406 33.875C154.344 33 156.615 32.5625 159.219 32.5625C161.99 32.5625 164.417 33.0938 166.5 34.1562C168.604 35.2188 170.25 36.7396 171.438 38.7188C172.646 40.6771 173.26 43 173.281 45.6875H164.812C164.792 44.5625 164.552 43.5417 164.094 42.625C163.656 41.7083 163.01 40.9792 162.156 40.4375C161.323 39.875 160.292 39.5938 159.062 39.5938C157.75 39.5938 156.677 39.875 155.844 40.4375C155.01 40.9792 154.365 41.7292 153.906 42.6875C153.448 43.625 153.125 44.6979 152.938 45.9062C152.771 47.0938 152.688 48.3438 152.688 49.6562V50.5625C152.688 51.875 152.771 53.1354 152.938 54.3438C153.104 55.5521 153.417 56.625 153.875 57.5625C154.354 58.5 155.01 59.2396 155.844 59.7812C156.677 60.3229 157.76 60.5938 159.094 60.5938ZM196.75 59.375V44.3125C196.75 43.2292 196.573 42.3021 196.219 41.5312C195.865 40.7396 195.312 40.125 194.562 39.6875C193.833 39.25 192.885 39.0312 191.719 39.0312C190.719 39.0312 189.854 39.2083 189.125 39.5625C188.396 39.8958 187.833 40.3854 187.438 41.0312C187.042 41.6562 186.844 42.3958 186.844 43.25H177.844C177.844 41.8125 178.177 40.4479 178.844 39.1562C179.51 37.8646 180.479 36.7292 181.75 35.75C183.021 34.75 184.531 33.9688 186.281 33.4062C188.052 32.8438 190.031 32.5625 192.219 32.5625C194.844 32.5625 197.177 33 199.219 33.875C201.26 34.75 202.865 36.0625 204.031 37.8125C205.219 39.5625 205.812 41.75 205.812 44.375V58.8438C205.812 60.6979 205.927 62.2188 206.156 63.4062C206.385 64.5729 206.719 65.5938 207.156 66.4688V67H198.062C197.625 66.0833 197.292 64.9375 197.062 63.5625C196.854 62.1667 196.75 60.7708 196.75 59.375ZM197.938 46.4062L198 51.5H192.969C191.781 51.5 190.75 51.6354 189.875 51.9062C189 52.1771 188.281 52.5625 187.719 53.0625C187.156 53.5417 186.74 54.1042 186.469 54.75C186.219 55.3958 186.094 56.1042 186.094 56.875C186.094 57.6458 186.271 58.3438 186.625 58.9688C186.979 59.5729 187.49 60.0521 188.156 60.4062C188.823 60.7396 189.604 60.9062 190.5 60.9062C191.854 60.9062 193.031 60.6354 194.031 60.0938C195.031 59.5521 195.802 58.8854 196.344 58.0938C196.906 57.3021 197.198 56.5521 197.219 55.8438L199.594 59.6562C199.26 60.5104 198.802 61.3958 198.219 62.3125C197.656 63.2292 196.938 64.0938 196.062 64.9062C195.188 65.6979 194.135 66.3542 192.906 66.875C191.677 67.375 190.219 67.625 188.531 67.625C186.385 67.625 184.438 67.1979 182.688 66.3438C180.958 65.4688 179.583 64.2708 178.562 62.75C177.562 61.2083 177.062 59.4583 177.062 57.5C177.062 55.7292 177.396 54.1562 178.062 52.7812C178.729 51.4062 179.708 50.25 181 49.3125C182.312 48.3542 183.948 47.6354 185.906 47.1562C187.865 46.6562 190.135 46.4062 192.719 46.4062H197.938ZM232.719 59.625V19H241.781V67H233.625L232.719 59.625ZM211.344 50.5V49.8438C211.344 47.2604 211.635 44.9167 212.219 42.8125C212.802 40.6875 213.656 38.8646 214.781 37.3438C215.906 35.8229 217.292 34.6458 218.938 33.8125C220.583 32.9792 222.458 32.5625 224.562 32.5625C226.542 32.5625 228.271 32.9792 229.75 33.8125C231.25 34.6458 232.521 35.8333 233.562 37.375C234.625 38.8958 235.479 40.6979 236.125 42.7812C236.771 44.8438 237.24 47.1042 237.531 49.5625V51C237.24 53.3542 236.771 55.5417 236.125 57.5625C235.479 59.5833 234.625 61.3542 233.562 62.875C232.521 64.375 231.25 65.5417 229.75 66.375C228.25 67.2083 226.5 67.625 224.5 67.625C222.396 67.625 220.521 67.1979 218.875 66.3438C217.25 65.4896 215.875 64.2917 214.75 62.75C213.646 61.2083 212.802 59.3958 212.219 57.3125C211.635 55.2292 211.344 52.9583 211.344 50.5ZM220.344 49.8438V50.5C220.344 51.8958 220.448 53.1979 220.656 54.4062C220.885 55.6146 221.25 56.6875 221.75 57.625C222.271 58.5417 222.938 59.2604 223.75 59.7812C224.583 60.2812 225.594 60.5312 226.781 60.5312C228.323 60.5312 229.594 60.1875 230.594 59.5C231.594 58.7917 232.354 57.8229 232.875 56.5938C233.417 55.3646 233.729 53.9479 233.812 52.3438V48.25C233.75 46.9375 233.562 45.7604 233.25 44.7188C232.958 43.6562 232.521 42.75 231.938 42C231.375 41.25 230.667 40.6667 229.812 40.25C228.979 39.8333 227.99 39.625 226.844 39.625C225.677 39.625 224.677 39.8958 223.844 40.4375C223.01 40.9583 222.333 41.6771 221.812 42.5938C221.312 43.5104 220.938 44.5938 220.688 45.8438C220.458 47.0729 220.344 48.4062 220.344 49.8438ZM264.375 67.625C261.75 67.625 259.396 67.2083 257.312 66.375C255.229 65.5208 253.458 64.3438 252 62.8438C250.562 61.3438 249.458 59.6042 248.688 57.625C247.917 55.625 247.531 53.5 247.531 51.25V50C247.531 47.4375 247.896 45.0938 248.625 42.9688C249.354 40.8438 250.396 39 251.75 37.4375C253.125 35.875 254.792 34.6771 256.75 33.8438C258.708 32.9896 260.917 32.5625 263.375 32.5625C265.771 32.5625 267.896 32.9583 269.75 33.75C271.604 34.5417 273.156 35.6667 274.406 37.125C275.677 38.5833 276.635 40.3333 277.281 42.375C277.927 44.3958 278.25 46.6458 278.25 49.125V52.875H251.375V46.875H269.406V46.1875C269.406 44.9375 269.177 43.8229 268.719 42.8438C268.281 41.8438 267.615 41.0521 266.719 40.4688C265.823 39.8854 264.677 39.5938 263.281 39.5938C262.094 39.5938 261.073 39.8542 260.219 40.375C259.365 40.8958 258.667 41.625 258.125 42.5625C257.604 43.5 257.208 44.6042 256.938 45.875C256.688 47.125 256.562 48.5 256.562 50V51.25C256.562 52.6042 256.75 53.8542 257.125 55C257.521 56.1458 258.073 57.1354 258.781 57.9688C259.51 58.8021 260.385 59.4479 261.406 59.9062C262.448 60.3646 263.625 60.5938 264.938 60.5938C266.562 60.5938 268.073 60.2812 269.469 59.6562C270.885 59.0104 272.104 58.0417 273.125 56.75L277.5 61.5C276.792 62.5208 275.823 63.5 274.594 64.4375C273.385 65.375 271.927 66.1458 270.219 66.75C268.51 67.3333 266.562 67.625 264.375 67.625ZM292.375 40.1875V67H283.344V33.1875H291.812L292.375 40.1875ZM291.125 48.9062H288.625C288.625 46.5521 288.906 44.3854 289.469 42.4062C290.052 40.4062 290.896 38.6771 292 37.2188C293.125 35.7396 294.51 34.5938 296.156 33.7812C297.802 32.9688 299.708 32.5625 301.875 32.5625C303.375 32.5625 304.75 32.7917 306 33.25C307.25 33.6875 308.323 34.3854 309.219 35.3438C310.135 36.2812 310.844 37.5104 311.344 39.0312C311.844 40.5312 312.094 42.3333 312.094 44.4375V67H303.094V45.4375C303.094 43.8958 302.885 42.7083 302.469 41.875C302.052 41.0417 301.458 40.4583 300.688 40.125C299.938 39.7917 299.031 39.625 297.969 39.625C296.802 39.625 295.781 39.8646 294.906 40.3438C294.052 40.8229 293.344 41.4896 292.781 42.3438C292.219 43.1771 291.802 44.1562 291.531 45.2812C291.26 46.4062 291.125 47.6146 291.125 48.9062ZM311.25 47.875L308.031 48.2812C308.031 46.0729 308.302 44.0208 308.844 42.125C309.406 40.2292 310.229 38.5625 311.312 37.125C312.417 35.6875 313.781 34.5729 315.406 33.7812C317.031 32.9688 318.906 32.5625 321.031 32.5625C322.656 32.5625 324.135 32.8021 325.469 33.2812C326.802 33.7396 327.938 34.4792 328.875 35.5C329.833 36.5 330.562 37.8125 331.062 39.4375C331.583 41.0625 331.844 43.0521 331.844 45.4062V67H322.812V45.4062C322.812 43.8438 322.604 42.6562 322.188 41.8438C321.792 41.0104 321.208 40.4375 320.438 40.125C319.688 39.7917 318.792 39.625 317.75 39.625C316.667 39.625 315.719 39.8438 314.906 40.2812C314.094 40.6979 313.417 41.2812 312.875 42.0312C312.333 42.7812 311.927 43.6562 311.656 44.6562C311.385 45.6354 311.25 46.7083 311.25 47.875ZM348.844 63.1875L357.812 33.1875H367.469L353.875 72.0938C353.583 72.9479 353.188 73.8646 352.688 74.8438C352.208 75.8229 351.552 76.75 350.719 77.625C349.906 78.5208 348.875 79.25 347.625 79.8125C346.396 80.375 344.885 80.6562 343.094 80.6562C342.24 80.6562 341.542 80.6042 341 80.5C340.458 80.3958 339.812 80.25 339.062 80.0625V73.4688C339.292 73.4688 339.531 73.4688 339.781 73.4688C340.031 73.4896 340.271 73.5 340.5 73.5C341.688 73.5 342.656 73.3646 343.406 73.0938C344.156 72.8229 344.76 72.4062 345.219 71.8438C345.677 71.3021 346.042 70.5938 346.312 69.7188L348.844 63.1875ZM345.094 33.1875L352.438 57.6875L353.719 67.2188L347.594 67.875L335.438 33.1875H345.094Z" fill="#1F54DF" fill-opacity="0.88"/>
<path fill-rule="evenodd" clip-rule="evenodd" d="M25.3953 3.25968C23.0208 1.05491 20.8938 0.707774 16.4379 0.830487L0.193191 60.7313C3.31166 62.6997 5.20268 63.4246 9.15062 63.1605L12.3761 51.1311C14.3431 50.0671 21.2338 46.3808 28.9259 42.7443L35.4339 64.9605C38.1905 66.4419 39.7185 66.9215 42.3621 66.0509L34.7541 40.0798C43.0706 36.4222 51.134 33.5698 54.0158 34.7176C60.7918 37.4164 50.7775 29.5984 45.2501 31.3875C43.5145 31.9493 38.9837 33.8045 33.584 36.0855L28.8189 19.8187L25.3953 3.25968ZM27.708 38.5868L24.2828 26.8942L23.8945 26.4421L16.4185 36.0554L14.1698 44.4416C18.1066 42.7262 22.9739 40.6149 27.708 38.5868Z" fill="#1F54DF" fill-opacity="0.88"/>
</svg>
