<svg width="27" height="32" viewBox="0 0 27 32" fill="none" xmlns="http://www.w3.org/2000/svg">
<path fill-rule="evenodd" clip-rule="evenodd" d="M11.7718 2.0325C10.6667 1.00636 9.67676 0.844794 7.60287 0.901907L0.0422581 28.781C1.49366 29.6971 2.37378 30.0345 4.21123 29.9116L5.71243 24.3129C6.62786 23.8178 9.83496 22.1021 13.4151 20.4096L16.444 30.7494C17.727 31.4389 18.4381 31.6621 19.6685 31.2569L16.1276 19.1694C19.9983 17.4671 23.7512 16.1395 25.0925 16.6737C28.2462 17.9298 23.5853 14.2911 21.0127 15.1238C20.2049 15.3853 18.0962 16.2488 15.5831 17.3104L13.3653 9.73975L11.7718 2.0325ZM12.8482 18.4746L11.254 13.0324L11.0733 12.8221L7.59386 17.2963L6.54726 21.1995C8.37953 20.4011 10.6448 19.4185 12.8482 18.4746Z" fill="#1F54DF" fill-opacity="0.88"/>
</svg>
