<svg width="669" height="486" viewBox="0 0 669 486" fill="none" xmlns="http://www.w3.org/2000/svg">
<g clip-path="url(#clip0_11_13)">
<path d="M389.691 85.6761C402.23 85.6761 412.394 75.5237 412.394 63.0001C412.394 50.4764 402.23 40.324 389.691 40.324C377.153 40.324 366.989 50.4764 366.989 63.0001C366.989 75.5237 377.153 85.6761 389.691 85.6761Z" fill="#F2F2F2"/>
<path d="M565.802 422.215C599.547 396.543 615.664 353.403 605.574 312.25C605.323 311.227 605.059 310.207 604.78 309.189C598.091 284.761 581.541 261.545 557.421 253.74C537.168 247.186 515.061 252.225 493.933 249.619C452.456 244.503 420.3 210.983 397.674 175.886C375.048 140.79 357.659 101.505 327.594 72.5101C278.037 24.7173 197.197 14.4274 135.753 45.537C74.3098 76.6467 35.1708 145.666 36.84 214.452C38.5092 283.239 79.3923 349.003 138.765 383.896C160.576 396.714 185.802 405.794 210.908 402.617C232.691 399.86 252.484 388.168 274.166 384.698C308.253 379.24 342.124 394.635 371.607 412.574C401.091 430.513 429.57 451.776 463.073 460.092C495.606 468.167 535.91 444.957 565.802 422.215Z" fill="#F2F2F2"/>
<path d="M517.319 46.9815C516.579 46.4889 515.831 46.0218 515.091 45.5462C493.708 31.8864 470.789 20.7893 446.807 12.4842L441.247 89.1051H405.995V1.29935C403.776 0.840743 401.539 0.407618 399.303 -3.05176e-05V89.1051H357.411C334.349 89.1051 312.231 79.9544 295.924 63.666C279.617 47.3777 270.455 25.2859 270.455 2.25063V2.25055C268.21 2.73463 265.983 3.25269 263.755 3.80471V89.1051H229.634L224.337 16.0426C199.692 25.4834 176.295 37.8983 154.667 53.0113C154.293 53.2661 153.919 53.5293 153.553 53.7841C151.674 55.1005 149.821 56.4423 147.975 57.8011V350.111H248.535L246.758 325.524L236.98 190.533H433.892L424.114 325.524L422.337 350.111H521.783V49.9369C520.303 48.9348 518.816 47.9497 517.319 46.9815ZM263.755 168.24H235.365L230.119 95.7974H263.755V168.24ZM399.303 168.24H351.621V166.805C351.621 166.115 351.485 165.431 351.22 164.794C350.955 164.157 350.568 163.578 350.079 163.09C349.59 162.603 349.01 162.216 348.371 161.953C347.733 161.69 347.048 161.555 346.358 161.556H325.628C324.938 161.556 324.255 161.691 323.617 161.955C322.98 162.219 322.4 162.605 321.912 163.093C321.424 163.58 321.037 164.159 320.773 164.796C320.509 165.433 320.374 166.115 320.374 166.805V168.24H270.455V95.7974H399.303V168.24ZM405.995 168.24V95.7974H440.762L435.516 168.24H405.995Z" fill="#3F3D56"/>
<path d="M-3.05176e-05 368.829C7.38638 377.571 15.3756 385.787 23.9092 393.415L645.091 394.265C653.624 386.636 661.613 378.42 669 369.678L-3.05176e-05 368.829Z" fill="#3F3D56"/>
<path d="M421.243 290.102V362.888C421.244 363.816 421.613 364.705 422.27 365.361C422.927 366.017 423.817 366.386 424.746 366.386H532.732C533.661 366.386 534.551 366.017 535.208 365.361C535.864 364.705 536.234 363.816 536.234 362.888V290.102C536.232 289.176 535.862 288.288 535.206 287.633C534.55 286.978 533.66 286.609 532.732 286.608H424.746C423.818 286.609 422.928 286.978 422.272 287.633C421.615 288.288 421.246 289.176 421.243 290.102Z" fill="#3F3D56"/>
<path d="M423.777 291.008V361.99C423.777 362.486 423.975 362.961 424.326 363.311C424.677 363.662 425.152 363.859 425.648 363.86H531.833C532.329 363.859 532.805 363.662 533.156 363.311C533.507 362.961 533.704 362.486 533.705 361.99V291.008C533.705 290.512 533.508 290.036 533.157 289.685C532.806 289.334 532.33 289.136 531.833 289.135H425.648C425.152 289.136 424.676 289.334 424.325 289.685C423.974 290.036 423.777 290.512 423.777 291.008Z" fill="#6C63FF"/>
<path d="M418.985 377.083C419.183 377.331 419.434 377.531 419.72 377.668C420.006 377.804 420.32 377.875 420.637 377.873H536.266C536.582 377.873 536.894 377.802 537.179 377.666C537.465 377.53 537.716 377.332 537.915 377.086C538.114 376.841 538.256 376.555 538.331 376.248C538.405 375.941 538.41 375.621 538.345 375.312L536.55 366.796C536.476 366.449 536.316 366.126 536.084 365.856C535.853 365.586 535.558 365.379 535.226 365.252C534.985 365.158 534.729 365.11 534.471 365.11H422.425C422.167 365.11 421.911 365.158 421.67 365.252C421.338 365.379 421.043 365.586 420.811 365.856C420.58 366.126 420.42 366.449 420.345 366.796L418.55 375.312C418.486 375.621 418.492 375.94 418.567 376.246C418.643 376.553 418.785 376.839 418.985 377.083Z" fill="#2F2E41"/>
<path d="M530.503 368.778H533.234C533.464 368.778 533.649 368.592 533.649 368.363V367.058C533.649 366.829 533.464 366.644 533.234 366.644H530.503C530.274 366.644 530.088 366.829 530.088 367.058V368.363C530.088 368.592 530.274 368.778 530.503 368.778Z" fill="#3F3D56"/>
<path d="M523.381 368.778H526.112C526.341 368.778 526.527 368.592 526.527 368.363V367.058C526.527 366.829 526.341 366.644 526.112 366.644H523.381C523.151 366.644 522.966 366.829 522.966 367.058V368.363C522.966 368.592 523.151 368.778 523.381 368.778Z" fill="#3F3D56"/>
<path d="M516.258 368.778H518.989C519.218 368.778 519.404 368.592 519.404 368.363V367.058C519.404 366.829 519.218 366.644 518.989 366.644H516.258C516.029 366.644 515.843 366.829 515.843 367.058V368.363C515.843 368.592 516.029 368.778 516.258 368.778Z" fill="#3F3D56"/>
<path d="M509.135 368.778H511.867C512.096 368.778 512.282 368.592 512.282 368.363V367.058C512.282 366.829 512.096 366.644 511.867 366.644H509.135C508.906 366.644 508.72 366.829 508.72 367.058V368.363C508.72 368.592 508.906 368.778 509.135 368.778Z" fill="#3F3D56"/>
<path d="M502.013 368.778H504.744C504.973 368.778 505.159 368.592 505.159 368.363V367.058C505.159 366.829 504.973 366.644 504.744 366.644H502.013C501.784 366.644 501.598 366.829 501.598 367.058V368.363C501.598 368.592 501.784 368.778 502.013 368.778Z" fill="#3F3D56"/>
<path d="M494.89 368.778H497.621C497.851 368.778 498.036 368.592 498.036 368.363V367.058C498.036 366.829 497.851 366.644 497.621 366.644H494.89C494.661 366.644 494.475 366.829 494.475 367.058V368.363C494.475 368.592 494.661 368.778 494.89 368.778Z" fill="#3F3D56"/>
<path d="M487.768 368.778H490.499C490.728 368.778 490.914 368.592 490.914 368.363V367.058C490.914 366.829 490.728 366.644 490.499 366.644H487.768C487.538 366.644 487.353 366.829 487.353 367.058V368.363C487.353 368.592 487.538 368.778 487.768 368.778Z" fill="#3F3D56"/>
<path d="M480.645 368.778H483.376C483.605 368.778 483.791 368.592 483.791 368.363V367.058C483.791 366.829 483.605 366.644 483.376 366.644H480.645C480.416 366.644 480.23 366.829 480.23 367.058V368.363C480.23 368.592 480.416 368.778 480.645 368.778Z" fill="#3F3D56"/>
<path d="M473.522 368.778H476.254C476.483 368.778 476.669 368.592 476.669 368.363V367.058C476.669 366.829 476.483 366.644 476.254 366.644H473.522C473.293 366.644 473.107 366.829 473.107 367.058V368.363C473.107 368.592 473.293 368.778 473.522 368.778Z" fill="#3F3D56"/>
<path d="M466.4 368.778H469.131C469.36 368.778 469.546 368.592 469.546 368.363V367.058C469.546 366.829 469.36 366.644 469.131 366.644H466.4C466.171 366.644 465.985 366.829 465.985 367.058V368.363C465.985 368.592 466.171 368.778 466.4 368.778Z" fill="#3F3D56"/>
<path d="M459.277 368.778H462.008C462.238 368.778 462.423 368.592 462.423 368.363V367.058C462.423 366.829 462.238 366.644 462.008 366.644H459.277C459.048 366.644 458.862 366.829 458.862 367.058V368.363C458.862 368.592 459.048 368.778 459.277 368.778Z" fill="#3F3D56"/>
<path d="M452.155 368.778H454.886C455.115 368.778 455.301 368.592 455.301 368.363V367.058C455.301 366.829 455.115 366.644 454.886 366.644H452.155C451.925 366.644 451.74 366.829 451.74 367.058V368.363C451.74 368.592 451.925 368.778 452.155 368.778Z" fill="#3F3D56"/>
<path d="M445.032 368.778H447.763C447.992 368.778 448.178 368.592 448.178 368.363V367.058C448.178 366.829 447.992 366.644 447.763 366.644H445.032C444.803 366.644 444.617 366.829 444.617 367.058V368.363C444.617 368.592 444.803 368.778 445.032 368.778Z" fill="#3F3D56"/>
<path d="M437.909 368.778H440.641C440.87 368.778 441.056 368.592 441.056 368.363V367.058C441.056 366.829 440.87 366.644 440.641 366.644H437.909C437.68 366.644 437.494 366.829 437.494 367.058V368.363C437.494 368.592 437.68 368.778 437.909 368.778Z" fill="#3F3D56"/>
<path d="M430.787 368.778H433.518C433.747 368.778 433.933 368.592 433.933 368.363V367.058C433.933 366.829 433.747 366.644 433.518 366.644H430.787C430.558 366.644 430.372 366.829 430.372 367.058V368.363C430.372 368.592 430.558 368.778 430.787 368.778Z" fill="#3F3D56"/>
<path d="M423.664 368.778H426.395C426.625 368.778 426.81 368.592 426.81 368.363V367.058C426.81 366.829 426.625 366.644 426.395 366.644H423.664C423.435 366.644 423.249 366.829 423.249 367.058V368.363C423.249 368.592 423.435 368.778 423.664 368.778Z" fill="#3F3D56"/>
<path d="M530.587 372.335H533.318C533.548 372.335 533.734 372.149 533.734 371.92V370.615C533.734 370.386 533.548 370.201 533.318 370.201H530.587C530.358 370.201 530.172 370.386 530.172 370.615V371.92C530.172 372.149 530.358 372.335 530.587 372.335Z" fill="#3F3D56"/>
<path d="M523.465 372.335H526.196C526.425 372.335 526.611 372.149 526.611 371.92V370.615C526.611 370.386 526.425 370.201 526.196 370.201H523.465C523.235 370.201 523.05 370.386 523.05 370.615V371.92C523.05 372.149 523.235 372.335 523.465 372.335Z" fill="#3F3D56"/>
<path d="M516.342 372.335H519.073C519.303 372.335 519.488 372.149 519.488 371.92V370.615C519.488 370.386 519.303 370.201 519.073 370.201H516.342C516.113 370.201 515.927 370.386 515.927 370.615V371.92C515.927 372.149 516.113 372.335 516.342 372.335Z" fill="#3F3D56"/>
<path d="M509.22 372.335H511.951C512.18 372.335 512.366 372.149 512.366 371.92V370.615C512.366 370.386 512.18 370.201 511.951 370.201H509.22C508.99 370.201 508.804 370.386 508.804 370.615V371.92C508.804 372.149 508.99 372.335 509.22 372.335Z" fill="#3F3D56"/>
<path d="M502.097 372.335H504.828C505.057 372.335 505.243 372.149 505.243 371.92V370.615C505.243 370.386 505.057 370.201 504.828 370.201H502.097C501.868 370.201 501.682 370.386 501.682 370.615V371.92C501.682 372.149 501.868 372.335 502.097 372.335Z" fill="#3F3D56"/>
<path d="M494.974 372.335H497.705C497.935 372.335 498.121 372.149 498.121 371.92V370.615C498.121 370.386 497.935 370.201 497.705 370.201H494.974C494.745 370.201 494.559 370.386 494.559 370.615V371.92C494.559 372.149 494.745 372.335 494.974 372.335Z" fill="#3F3D56"/>
<path d="M487.852 372.335H490.583C490.812 372.335 490.998 372.149 490.998 371.92V370.615C490.998 370.386 490.812 370.201 490.583 370.201H487.852C487.623 370.201 487.437 370.386 487.437 370.615V371.92C487.437 372.149 487.623 372.335 487.852 372.335Z" fill="#3F3D56"/>
<path d="M480.729 372.335H483.46C483.689 372.335 483.875 372.149 483.875 371.92V370.615C483.875 370.386 483.689 370.201 483.46 370.201H480.729C480.5 370.201 480.314 370.386 480.314 370.615V371.92C480.314 372.149 480.5 372.335 480.729 372.335Z" fill="#3F3D56"/>
<path d="M473.607 372.335H476.338C476.567 372.335 476.753 372.149 476.753 371.92V370.615C476.753 370.386 476.567 370.201 476.338 370.201H473.607C473.377 370.201 473.191 370.386 473.191 370.615V371.92C473.191 372.149 473.377 372.335 473.607 372.335Z" fill="#3F3D56"/>
<path d="M466.484 372.335H469.215C469.444 372.335 469.63 372.149 469.63 371.92V370.615C469.63 370.386 469.444 370.201 469.215 370.201H466.484C466.255 370.201 466.069 370.386 466.069 370.615V371.92C466.069 372.149 466.255 372.335 466.484 372.335Z" fill="#3F3D56"/>
<path d="M459.361 372.335H462.092C462.322 372.335 462.508 372.149 462.508 371.92V370.615C462.508 370.386 462.322 370.201 462.092 370.201H459.361C459.132 370.201 458.946 370.386 458.946 370.615V371.92C458.946 372.149 459.132 372.335 459.361 372.335Z" fill="#3F3D56"/>
<path d="M452.239 372.335H454.97C455.199 372.335 455.385 372.149 455.385 371.92V370.615C455.385 370.386 455.199 370.201 454.97 370.201H452.239C452.01 370.201 451.824 370.386 451.824 370.615V371.92C451.824 372.149 452.01 372.335 452.239 372.335Z" fill="#3F3D56"/>
<path d="M445.116 372.335H447.847C448.077 372.335 448.262 372.149 448.262 371.92V370.615C448.262 370.386 448.077 370.201 447.847 370.201H445.116C444.887 370.201 444.701 370.386 444.701 370.615V371.92C444.701 372.149 444.887 372.335 445.116 372.335Z" fill="#3F3D56"/>
<path d="M437.994 372.335H440.725C440.954 372.335 441.14 372.149 441.14 371.92V370.615C441.14 370.386 440.954 370.201 440.725 370.201H437.994C437.764 370.201 437.579 370.386 437.579 370.615V371.92C437.579 372.149 437.764 372.335 437.994 372.335Z" fill="#3F3D56"/>
<path d="M430.871 372.335H433.602C433.831 372.335 434.017 372.149 434.017 371.92V370.615C434.017 370.386 433.831 370.201 433.602 370.201H430.871C430.642 370.201 430.456 370.386 430.456 370.615V371.92C430.456 372.149 430.642 372.335 430.871 372.335Z" fill="#3F3D56"/>
<path d="M423.748 372.335H426.48C426.709 372.335 426.895 372.149 426.895 371.92V370.615C426.895 370.386 426.709 370.201 426.48 370.201H423.748C423.519 370.201 423.333 370.386 423.333 370.615V371.92C423.333 372.149 423.519 372.335 423.748 372.335Z" fill="#3F3D56"/>
<path d="M471.47 376.604H499.13C499.359 376.604 499.545 376.418 499.545 376.189V374.884C499.545 374.655 499.359 374.469 499.13 374.469H471.47C471.241 374.469 471.055 374.655 471.055 374.884V376.189C471.055 376.418 471.241 376.604 471.47 376.604Z" fill="#3F3D56"/>
<path d="M442.165 304.664H439.747C439.014 304.664 438.419 305.257 438.419 305.99C438.419 306.722 439.014 307.315 439.747 307.315H442.165C442.898 307.315 443.492 306.722 443.492 305.99C443.492 305.257 442.898 304.664 442.165 304.664Z" fill="white"/>
<path d="M469.818 304.664H467.4C466.667 304.664 466.072 305.257 466.072 305.99C466.072 306.722 466.667 307.315 467.4 307.315H469.818C470.551 307.315 471.145 306.722 471.145 305.99C471.145 305.257 470.551 304.664 469.818 304.664Z" fill="white"/>
<path d="M477.653 304.664H475.235C474.502 304.664 473.907 305.257 473.907 305.99C473.907 306.722 474.502 307.315 475.235 307.315H477.653C478.386 307.315 478.98 306.722 478.98 305.99C478.98 305.257 478.386 304.664 477.653 304.664Z" fill="white"/>
<path d="M462.296 304.443H447.268C446.535 304.443 445.941 305.036 445.941 305.769C445.941 306.501 446.535 307.094 447.268 307.094H462.296C463.029 307.094 463.623 306.501 463.623 305.769C463.623 305.036 463.029 304.443 462.296 304.443Z" fill="white"/>
<path d="M499.167 304.443H484.139C483.406 304.443 482.812 305.036 482.812 305.769C482.812 306.501 483.406 307.094 484.139 307.094H499.167C499.9 307.094 500.494 306.501 500.494 305.769C500.494 305.036 499.9 304.443 499.167 304.443Z" fill="white"/>
<path d="M449.539 310.648H447.121C446.388 310.648 445.794 311.242 445.794 311.974C445.794 312.706 446.388 313.3 447.121 313.3H449.539C450.272 313.3 450.866 312.706 450.866 311.974C450.866 311.242 450.272 310.648 449.539 310.648Z" fill="white"/>
<path d="M477.192 310.648H474.774C474.041 310.648 473.447 311.242 473.447 311.974C473.447 312.706 474.041 313.3 474.774 313.3H477.192C477.925 313.3 478.519 312.706 478.519 311.974C478.519 311.242 477.925 310.648 477.192 310.648Z" fill="white"/>
<path d="M485.027 310.648H482.609C481.876 310.648 481.282 311.242 481.282 311.974C481.282 312.706 481.876 313.3 482.609 313.3H485.027C485.76 313.3 486.354 312.706 486.354 311.974C486.354 311.242 485.76 310.648 485.027 310.648Z" fill="white"/>
<path d="M469.67 310.427H454.643C453.91 310.427 453.315 311.021 453.315 311.753C453.315 312.485 453.91 313.079 454.643 313.079H469.67C470.403 313.079 470.997 312.485 470.997 311.753C470.997 311.021 470.403 310.427 469.67 310.427Z" fill="white"/>
<path d="M506.541 310.427H491.513C490.78 310.427 490.186 311.021 490.186 311.753C490.186 312.485 490.78 313.079 491.513 313.079H506.541C507.274 313.079 507.868 312.485 507.868 311.753C507.868 311.021 507.274 310.427 506.541 310.427Z" fill="white"/>
<path d="M456.913 316.633H454.495C453.762 316.633 453.168 317.226 453.168 317.959C453.168 318.691 453.762 319.284 454.495 319.284H456.913C457.646 319.284 458.24 318.691 458.24 317.959C458.24 317.226 457.646 316.633 456.913 316.633Z" fill="white"/>
<path d="M484.566 316.633H482.148C481.415 316.633 480.821 317.226 480.821 317.959C480.821 318.691 481.415 319.284 482.148 319.284H484.566C485.299 319.284 485.893 318.691 485.893 317.959C485.893 317.226 485.299 316.633 484.566 316.633Z" fill="white"/>
<path d="M492.401 316.633H489.983C489.25 316.633 488.656 317.226 488.656 317.959C488.656 318.691 489.25 319.284 489.983 319.284H492.401C493.134 319.284 493.728 318.691 493.728 317.959C493.728 317.226 493.134 316.633 492.401 316.633Z" fill="white"/>
<path d="M477.044 316.412H462.017C461.284 316.412 460.689 317.005 460.689 317.738C460.689 318.47 461.284 319.063 462.017 319.063H477.044C477.777 319.063 478.371 318.47 478.371 317.738C478.371 317.005 477.777 316.412 477.044 316.412Z" fill="white"/>
<path d="M513.915 316.412H498.887C498.154 316.412 497.56 317.005 497.56 317.738C497.56 318.47 498.154 319.063 498.887 319.063H513.915C514.648 319.063 515.242 318.47 515.242 317.738C515.242 317.005 514.648 316.412 513.915 316.412Z" fill="white"/>
<path d="M464.287 322.617H461.869C461.136 322.617 460.542 323.211 460.542 323.943C460.542 324.675 461.136 325.269 461.869 325.269H464.287C465.02 325.269 465.614 324.675 465.614 323.943C465.614 323.211 465.02 322.617 464.287 322.617Z" fill="white"/>
<path d="M491.94 322.617H489.522C488.789 322.617 488.195 323.211 488.195 323.943C488.195 324.675 488.789 325.269 489.522 325.269H491.94C492.673 325.269 493.267 324.675 493.267 323.943C493.267 323.211 492.673 322.617 491.94 322.617Z" fill="white"/>
<path d="M499.775 322.617H497.357C496.624 322.617 496.03 323.211 496.03 323.943C496.03 324.675 496.624 325.269 497.357 325.269H499.775C500.508 325.269 501.102 324.675 501.102 323.943C501.102 323.211 500.508 322.617 499.775 322.617Z" fill="white"/>
<path d="M484.418 322.396H469.391C468.658 322.396 468.064 322.99 468.064 323.722C468.064 324.454 468.658 325.048 469.391 325.048H484.418C485.151 325.048 485.746 324.454 485.746 323.722C485.746 322.99 485.151 322.396 484.418 322.396Z" fill="white"/>
<path d="M469.818 346.414H467.4C466.667 346.414 466.072 347.008 466.072 347.74C466.072 348.472 466.667 349.066 467.4 349.066H469.818C470.551 349.066 471.145 348.472 471.145 347.74C471.145 347.008 470.551 346.414 469.818 346.414Z" fill="white"/>
<path d="M477.653 346.414H475.235C474.502 346.414 473.907 347.008 473.907 347.74C473.907 348.472 474.502 349.066 475.235 349.066H477.653C478.386 349.066 478.98 348.472 478.98 347.74C478.98 347.008 478.386 346.414 477.653 346.414Z" fill="white"/>
<path d="M499.167 346.635H484.139C483.406 346.635 482.812 347.229 482.812 347.961C482.812 348.693 483.406 349.287 484.139 349.287H499.167C499.9 349.287 500.494 348.693 500.494 347.961C500.494 347.229 499.9 346.635 499.167 346.635Z" fill="white"/>
<path d="M442.165 346.414H439.747C439.014 346.414 438.419 347.008 438.419 347.74C438.419 348.472 439.014 349.066 439.747 349.066H442.165C442.898 349.066 443.492 348.472 443.492 347.74C443.492 347.008 442.898 346.414 442.165 346.414Z" fill="white"/>
<path d="M462.296 346.635H447.268C446.535 346.635 445.941 347.229 445.941 347.961C445.941 348.693 446.535 349.287 447.268 349.287H462.296C463.029 349.287 463.623 348.693 463.623 347.961C463.623 347.229 463.029 346.635 462.296 346.635Z" fill="white"/>
<path d="M449.539 340.43H447.121C446.388 340.43 445.794 341.023 445.794 341.755C445.794 342.488 446.388 343.081 447.121 343.081H449.539C450.272 343.081 450.866 342.488 450.866 341.755C450.866 341.023 450.272 340.43 449.539 340.43Z" fill="white"/>
<path d="M477.192 340.43H474.774C474.041 340.43 473.447 341.023 473.447 341.755C473.447 342.488 474.041 343.081 474.774 343.081H477.192C477.925 343.081 478.519 342.488 478.519 341.755C478.519 341.023 477.925 340.43 477.192 340.43Z" fill="white"/>
<path d="M485.027 340.43H482.609C481.876 340.43 481.282 341.023 481.282 341.755C481.282 342.488 481.876 343.081 482.609 343.081H485.027C485.76 343.081 486.354 342.488 486.354 341.755C486.354 341.023 485.76 340.43 485.027 340.43Z" fill="white"/>
<path d="M469.67 340.651H454.643C453.91 340.651 453.315 341.244 453.315 341.977C453.315 342.709 453.91 343.302 454.643 343.302H469.67C470.403 343.302 470.997 342.709 470.997 341.977C470.997 341.244 470.403 340.651 469.67 340.651Z" fill="white"/>
<path d="M456.913 334.445H454.495C453.762 334.445 453.168 335.039 453.168 335.771C453.168 336.503 453.762 337.097 454.495 337.097H456.913C457.646 337.097 458.24 336.503 458.24 335.771C458.24 335.039 457.646 334.445 456.913 334.445Z" fill="white"/>
<path d="M484.566 334.445H482.148C481.415 334.445 480.821 335.039 480.821 335.771C480.821 336.503 481.415 337.097 482.148 337.097H484.566C485.299 337.097 485.893 336.503 485.893 335.771C485.893 335.039 485.299 334.445 484.566 334.445Z" fill="white"/>
<path d="M492.401 334.445H489.983C489.25 334.445 488.656 335.039 488.656 335.771C488.656 336.503 489.25 337.097 489.983 337.097H492.401C493.134 337.097 493.728 336.503 493.728 335.771C493.728 335.039 493.134 334.445 492.401 334.445Z" fill="white"/>
<path d="M477.044 334.666H462.017C461.284 334.666 460.689 335.26 460.689 335.992C460.689 336.724 461.284 337.318 462.017 337.318H477.044C477.777 337.318 478.371 336.724 478.371 335.992C478.371 335.26 477.777 334.666 477.044 334.666Z" fill="white"/>
<path d="M464.287 328.461H461.869C461.136 328.461 460.542 329.054 460.542 329.786C460.542 330.519 461.136 331.112 461.869 331.112H464.287C465.02 331.112 465.614 330.519 465.614 329.786C465.614 329.054 465.02 328.461 464.287 328.461Z" fill="white"/>
<path d="M491.94 328.461H489.522C488.789 328.461 488.195 329.054 488.195 329.786C488.195 330.519 488.789 331.112 489.522 331.112H491.94C492.673 331.112 493.267 330.519 493.267 329.786C493.267 329.054 492.673 328.461 491.94 328.461Z" fill="white"/>
<path d="M499.775 328.461H497.357C496.624 328.461 496.03 329.054 496.03 329.786C496.03 330.519 496.624 331.112 497.357 331.112H499.775C500.508 331.112 501.102 330.519 501.102 329.786C501.102 329.054 500.508 328.461 499.775 328.461Z" fill="white"/>
<path d="M484.418 328.682H469.391C468.658 328.682 468.064 329.275 468.064 330.007C468.064 330.74 468.658 331.333 469.391 331.333H484.418C485.151 331.333 485.746 330.74 485.746 330.007C485.746 329.275 485.151 328.682 484.418 328.682Z" fill="white"/>
<path d="M429.31 416.55L417.959 398.629L453.587 370.261L468.292 353.988C470.203 351.874 472.636 350.298 475.347 349.417C478.059 348.536 480.954 348.381 483.744 348.968C486.534 349.555 489.121 350.863 491.247 352.762C493.372 354.66 494.962 357.083 495.856 359.787C497.182 363.795 496.897 368.16 495.061 371.961C493.226 375.762 489.983 378.703 486.019 380.162L462.765 388.719L429.31 416.55Z" fill="#FFB6B6"/>
<path d="M162.986 286.612V373.712H224.077V286.612C224.078 285.985 223.878 285.375 223.506 284.87C223.134 284.366 222.61 283.994 222.011 283.809C221.728 283.716 221.433 283.67 221.135 283.673H165.936C165.549 283.672 165.166 283.748 164.808 283.895C164.451 284.042 164.125 284.259 163.851 284.532C163.577 284.804 163.36 285.129 163.211 285.486C163.063 285.842 162.986 286.225 162.986 286.612ZM186.827 316.54C186.843 314.823 187.537 313.181 188.759 311.973C189.98 310.764 191.629 310.086 193.349 310.086C195.068 310.086 196.718 310.764 197.939 311.973C199.16 313.181 199.854 314.823 199.87 316.54V326.646C199.861 328.368 199.17 330.016 197.948 331.231C196.726 332.445 195.073 333.127 193.349 333.127C191.625 333.127 189.971 332.445 188.749 331.231C187.527 330.016 186.836 328.368 186.827 326.646V316.54Z" fill="#2F2E41"/>
<path d="M162.799 370.927V379.326C162.8 379.761 162.973 380.178 163.281 380.487C163.588 380.795 164.004 380.97 164.44 380.974H222.623C223.059 380.972 223.477 380.797 223.784 380.488C224.092 380.179 224.264 379.762 224.264 379.326V370.927H162.799Z" fill="#3F3D56"/>
<path d="M66.8813 155.383V314.417C66.8829 316.443 67.6896 318.386 69.1244 319.819C70.5591 321.253 72.5046 322.058 74.5336 322.06H310.48C312.509 322.058 314.455 321.253 315.889 319.819C317.324 318.386 318.131 316.443 318.133 314.417V155.383C318.128 153.358 317.32 151.417 315.885 149.986C314.451 148.555 312.507 147.75 310.48 147.748H74.5336C72.5063 147.75 70.5627 148.555 69.1284 149.986C67.6941 151.417 66.8861 153.358 66.8813 155.383Z" fill="#3F3D56"/>
<path d="M72.4165 157.361V312.455C72.4183 313.538 72.8498 314.575 73.6164 315.341C74.3829 316.107 75.4221 316.538 76.5062 316.54H308.516C309.6 316.538 310.639 316.107 311.406 315.341C312.173 314.575 312.604 313.538 312.606 312.455V157.361C312.606 156.277 312.175 155.237 311.408 154.47C310.642 153.703 309.602 153.27 308.516 153.268H76.5062C75.4208 153.27 74.3806 153.703 73.6139 154.47C72.8472 155.237 72.4166 156.277 72.4165 157.361Z" fill="white"/>
<path d="M115.474 380.405C115.71 380.7 116.01 380.939 116.352 381.102C116.693 381.265 117.067 381.349 117.446 381.347H255.477C255.855 381.347 256.227 381.262 256.568 381.1C256.909 380.938 257.209 380.701 257.446 380.409C257.684 380.116 257.854 379.774 257.943 379.407C258.031 379.041 258.037 378.659 257.96 378.29L255.817 368.124C255.728 367.71 255.537 367.324 255.261 367.002C254.985 366.68 254.632 366.432 254.236 366.281C253.949 366.169 253.643 366.111 253.334 366.112H119.58C119.272 366.111 118.966 366.169 118.679 366.281C118.282 366.432 117.93 366.68 117.654 367.002C117.378 367.324 117.186 367.71 117.098 368.124L114.955 378.29C114.879 378.659 114.886 379.04 114.975 379.406C115.065 379.772 115.235 380.113 115.474 380.405Z" fill="#2F2E41"/>
<path d="M300.987 174.633H83.8959C83.6703 174.628 83.4556 174.535 83.2977 174.374C83.1399 174.212 83.0516 173.996 83.0516 173.771C83.0516 173.545 83.1399 173.329 83.2977 173.167C83.4556 173.006 83.6703 172.913 83.8959 172.908H300.987C301.212 172.913 301.427 173.006 301.585 173.167C301.743 173.329 301.831 173.545 301.831 173.771C301.831 173.996 301.743 174.212 301.585 174.374C301.427 174.535 301.212 174.628 300.987 174.633Z" fill="#3F3D56"/>
<path d="M98.6736 168.505C101.468 168.505 103.733 166.193 103.733 163.339C103.733 160.486 101.468 158.173 98.6736 158.173C95.8793 158.173 93.6142 160.486 93.6142 163.339C93.6142 166.193 95.8793 168.505 98.6736 168.505Z" fill="#3F3D56"/>
<path d="M116.151 168.505C118.946 168.505 121.211 166.193 121.211 163.339C121.211 160.486 118.946 158.173 116.151 158.173C113.357 158.173 111.092 160.486 111.092 163.339C111.092 166.193 113.357 168.505 116.151 168.505Z" fill="#3F3D56"/>
<path d="M133.629 168.505C136.424 168.505 138.689 166.193 138.689 163.339C138.689 160.486 136.424 158.173 133.629 158.173C130.835 158.173 128.57 160.486 128.57 163.339C128.57 166.193 130.835 168.505 133.629 168.505Z" fill="#3F3D56"/>
<path d="M290.462 159.451H278.048C277.803 159.456 277.569 159.558 277.398 159.733C277.226 159.909 277.13 160.144 277.13 160.389C277.13 160.634 277.226 160.87 277.398 161.045C277.569 161.221 277.803 161.322 278.048 161.328H290.462C290.709 161.324 290.945 161.224 291.118 161.048C291.291 160.873 291.388 160.636 291.388 160.389C291.388 160.143 291.291 159.906 291.118 159.73C290.945 159.555 290.709 159.454 290.462 159.451Z" fill="#3F3D56"/>
<path d="M290.462 162.975H278.048C277.803 162.981 277.569 163.082 277.397 163.257C277.225 163.433 277.129 163.668 277.129 163.914C277.129 164.159 277.225 164.395 277.397 164.57C277.569 164.745 277.803 164.847 278.048 164.852H290.462C290.709 164.849 290.945 164.749 291.119 164.573C291.293 164.398 291.39 164.161 291.39 163.914C291.39 163.667 291.293 163.43 291.119 163.254C290.945 163.078 290.709 162.978 290.462 162.975Z" fill="#3F3D56"/>
<path d="M290.462 166.5H278.048C277.803 166.505 277.569 166.607 277.398 166.782C277.226 166.957 277.13 167.193 277.13 167.438C277.13 167.683 277.226 167.919 277.398 168.094C277.569 168.269 277.803 168.371 278.048 168.376H290.462C290.709 168.373 290.945 168.273 291.118 168.097C291.291 167.921 291.388 167.685 291.388 167.438C291.388 167.191 291.291 166.955 291.118 166.779C290.945 166.604 290.709 166.503 290.462 166.5Z" fill="#3F3D56"/>
<path d="M589.735 374.613C590.11 375.702 590.821 376.645 591.765 377.306C592.71 377.967 593.84 378.312 594.993 378.291L617.517 377.712C618.679 377.69 619.802 377.292 620.719 376.579C621.635 375.866 622.296 374.876 622.603 373.757L625.79 339.712C626.921 340.224 628.152 340.477 629.394 340.452C630.472 340.425 631.535 340.186 632.521 339.749C633.507 339.312 634.397 338.685 635.14 337.904C635.883 337.123 636.466 336.204 636.853 335.198C637.241 334.193 637.427 333.121 637.4 332.044C637.372 330.966 637.133 329.905 636.695 328.92C636.258 327.935 635.63 327.046 634.848 326.304C634.067 325.561 633.146 324.98 632.14 324.593C631.133 324.205 630.06 324.02 628.981 324.047C628.485 324.045 627.99 324.097 627.505 324.2C626.977 323.63 626.336 323.177 625.622 322.869C624.909 322.561 624.138 322.407 623.361 322.414L588.713 323.308C588.425 323.319 588.139 323.354 587.858 323.414C587.098 323.556 586.377 323.858 585.744 324.301C585.111 324.744 584.581 325.317 584.188 325.982C583.795 326.647 583.55 327.389 583.468 328.156C583.387 328.924 583.471 329.7 583.714 330.433L589.735 374.613ZM626.444 337.401L628.712 329.288C628.97 328.351 628.976 327.362 628.729 326.422C628.839 326.422 628.937 326.37 629.047 326.369C630.602 326.337 632.106 326.923 633.23 327.997C634.354 329.071 635.006 330.546 635.042 332.1C635.079 333.653 634.497 335.157 633.425 336.283C632.352 337.408 630.877 338.063 629.322 338.104C628.316 338.135 627.321 337.892 626.444 337.401Z" fill="#2F2E41"/>
<path d="M587.858 323.414C588.596 327.63 596.895 330.594 606.875 330.078C616.051 329.656 623.554 326.438 624.929 322.623C624.42 322.473 623.891 322.402 623.361 322.414L588.712 323.308C588.425 323.319 588.139 323.354 587.858 323.414Z" fill="#3F3D56"/>
<path d="M608.703 355.905C608.749 355.894 608.792 355.875 608.832 355.849L613.723 352.651C613.783 352.612 613.831 352.56 613.865 352.498C613.898 352.436 613.916 352.366 613.916 352.296C613.916 352.225 613.899 352.156 613.865 352.094C613.831 352.032 613.783 351.979 613.724 351.941L608.639 348.614C608.593 348.583 608.54 348.562 608.485 348.551C608.431 348.541 608.374 348.541 608.319 348.552C608.264 348.564 608.212 348.586 608.166 348.617C608.12 348.649 608.08 348.689 608.05 348.735C608.019 348.782 607.998 348.835 607.987 348.889C607.977 348.944 607.978 349.001 607.989 349.056C608.001 349.11 608.023 349.162 608.054 349.208C608.086 349.254 608.127 349.294 608.173 349.324L612.715 352.295L608.366 355.138C608.282 355.193 608.22 355.276 608.192 355.373C608.163 355.469 608.169 355.572 608.21 355.664C608.25 355.756 608.322 355.831 608.412 355.875C608.503 355.919 608.606 355.93 608.703 355.905H608.703Z" fill="#6C63FF"/>
<path d="M600.977 356.261C601.059 356.24 601.133 356.196 601.19 356.133C601.246 356.069 601.283 355.991 601.294 355.907C601.306 355.823 601.292 355.738 601.255 355.662C601.217 355.586 601.158 355.523 601.085 355.481L596.576 352.899L600.934 349.666C600.978 349.632 601.016 349.591 601.045 349.543C601.073 349.495 601.092 349.442 601.101 349.387C601.109 349.332 601.106 349.276 601.092 349.222C601.079 349.168 601.055 349.117 601.021 349.072C600.988 349.027 600.946 348.99 600.898 348.961C600.85 348.932 600.797 348.913 600.742 348.905C600.687 348.897 600.631 348.9 600.577 348.914C600.523 348.927 600.472 348.951 600.427 348.984L595.548 352.605C595.491 352.647 595.446 352.702 595.416 352.766C595.386 352.83 595.372 352.9 595.377 352.97C595.381 353.041 595.402 353.109 595.44 353.169C595.477 353.229 595.528 353.279 595.589 353.314L600.661 356.218C600.757 356.273 600.87 356.288 600.977 356.261Z" fill="#6C63FF"/>
<path d="M608.217 358.708C608.258 358.697 608.297 358.681 608.333 358.659C608.381 358.63 608.423 358.592 608.456 358.547C608.489 358.502 608.512 358.45 608.526 358.396C608.539 358.342 608.541 358.286 608.533 358.231C608.524 358.176 608.505 358.123 608.476 358.075L601.542 346.688C601.483 346.592 601.388 346.523 601.279 346.496C601.169 346.47 601.054 346.488 600.957 346.547C600.861 346.605 600.792 346.699 600.765 346.809C600.739 346.918 600.757 347.034 600.815 347.13L607.749 358.517C607.797 358.595 607.868 358.655 607.952 358.689C608.036 358.723 608.129 358.73 608.217 358.708Z" fill="#6C63FF"/>
<path d="M218.38 221.512H180.806C179.273 221.512 178.031 222.753 178.031 224.284V227.951C178.031 229.482 179.273 230.723 180.806 230.723H218.38C219.913 230.723 221.155 229.482 221.155 227.951V224.284C221.155 222.753 219.913 221.512 218.38 221.512Z" fill="#6C63FF"/>
<path d="M240.281 239.934H158.905C157.372 239.934 156.129 241.175 156.129 242.706V246.373C156.129 247.904 157.372 249.145 158.905 249.145H240.281C241.814 249.145 243.057 247.904 243.057 246.373V242.706C243.057 241.175 241.814 239.934 240.281 239.934Z" fill="#E6E6E6"/>
<path d="M240.281 258.356H158.905C157.372 258.356 156.129 259.597 156.129 261.128V264.794C156.129 266.325 157.372 267.567 158.905 267.567H240.281C241.814 267.567 243.057 266.325 243.057 264.794V261.128C243.057 259.597 241.814 258.356 240.281 258.356Z" fill="#E6E6E6"/>
<path d="M247.18 320.043L247.364 320.624L247.374 320.644L252.922 337.491L259.304 356.907L271.312 393.392L271.428 399.06V399.079L272.321 444.672L269.847 450.853L272.631 460.986C272.631 460.986 271.351 445.668 264.483 454.465C260.594 459.464 256.045 464.579 252.311 469.375C257.752 471.574 263.281 473.564 268.897 475.343C270.109 475.731 271.331 476.099 272.553 476.467C272.815 476.544 273.077 476.622 273.339 476.699C291.955 482.198 311.201 485.288 330.605 485.893C331.613 485.923 332.603 485.942 333.563 485.961C333.903 485.971 334.232 485.981 334.562 485.981C335.648 485.99 336.725 486 337.811 486C340.003 486 342.186 485.968 344.358 485.903C360.44 485.45 376.427 483.291 392.051 479.46C391.944 473.018 391.653 465.49 391.236 457.449C391.042 453.506 386.687 449.233 386.425 445.106C386.241 442.006 390.15 439.09 389.946 435.941C388.627 416.555 386.978 423.997 385.756 410.269C385.63 408.922 385.513 407.634 385.407 406.403C384.621 397.587 384.078 392.074 384.078 392.074L389.296 359.222L397.492 307.642L396.862 306.606L396.154 306.257L352.923 284.885L350.576 278.878C349.892 277.148 348.705 275.661 347.169 274.61C345.632 273.558 343.816 272.99 341.953 272.978L313.475 272.862C311.997 272.855 310.539 273.2 309.222 273.869C307.904 274.538 306.766 275.511 305.9 276.708L298.189 287.375L247.18 320.043Z" fill="#3F3D56"/>
<path d="M277.878 385.273L271.428 399.06L267.025 408.477L259.449 448.092L255.657 452.112L252.408 437.879L218.399 445.421C217.284 439.23 218.101 445.631 217.412 438.839C217.606 438.646 217.81 438.452 218.013 438.258C218.556 437.754 219.012 437.279 219.003 436.824C218.615 413.398 219.779 373.531 229.497 349.379C231.02 345.435 233.027 341.696 235.472 338.247C235.666 337.986 235.851 337.724 236.035 337.462C240.516 331.194 243.348 325.023 247.364 320.634V320.624C247.389 320.604 247.412 320.581 247.432 320.557C247.446 320.549 247.459 320.539 247.471 320.527L275.056 305.918L276.239 339.129L277.083 363L277.878 385.273Z" fill="#3F3D56"/>
<path d="M377.346 389.189L385.403 406.408L388.215 412.405L395.788 452.016L399.568 456.027L402.825 441.797L404.355 441.483L431.953 435.774L439.997 461.292C441.81 458.274 442.524 454.724 442.019 451.242C441.514 447.759 439.82 444.557 437.224 442.178C436.675 441.682 436.217 441.199 436.23 440.741C436.688 413.188 435.001 362.877 419.763 342.17C414.924 335.599 412.02 329.054 407.795 324.481C407.782 324.468 407.782 324.455 407.769 324.455L397.488 307.641L396.86 306.609L396.154 306.256L377.346 389.189Z" fill="#3F3D56"/>
<path d="M328.537 264.767C349.461 264.767 366.423 247.824 366.423 226.925C366.423 206.025 349.461 189.083 328.537 189.083C307.613 189.083 290.651 206.025 290.651 226.925C290.651 247.824 307.613 264.767 328.537 264.767Z" fill="#FFB6B6"/>
<path d="M379.744 200.492C379.451 200.179 379.097 199.928 378.704 199.754C378.311 199.581 377.887 199.488 377.457 199.482L378.027 197.902C378.213 197.405 378.263 196.867 378.172 196.343C378.081 195.82 377.853 195.33 377.51 194.924C377.168 194.518 376.723 194.21 376.222 194.032C375.721 193.854 375.182 193.812 374.66 193.911L372.585 194.31L372.781 192.925C372.856 192.41 372.795 191.884 372.605 191.399C372.414 190.914 372.101 190.486 371.695 190.159C371.289 189.832 370.805 189.615 370.29 189.532C369.775 189.448 369.248 189.499 368.759 189.681C368.314 189.856 367.836 189.929 367.359 189.895C366.883 189.862 366.419 189.722 366.004 189.486C365.587 189.257 365.225 188.94 364.943 188.558C364.661 188.175 364.466 187.735 364.371 187.269L363.649 183.787L363.572 183.6C360.052 177.74 353.284 173.477 345.003 171.914C337.631 170.513 330.072 171.227 322.785 171.897C319.895 172.169 316.63 172.475 313.909 174.14C311.596 175.566 309.64 178.42 310.04 181.299C302.855 179.099 295.152 183.49 291.334 189.027C286.811 195.618 286.071 203.872 285.952 210.327C285.629 225.597 288.784 238.089 295.305 247.465C295.781 248.145 295.9 249.563 296.844 250.039L296.648 249.724C297.703 250.251 298.774 251.1 298.374 252.009C297.227 254.625 304.853 260.408 310.227 262.319C320.031 265.81 333.065 265.512 342.231 264.255L342.554 262.09C345.861 261.64 348.191 260.782 348.846 259.44C350.002 258.455 350.988 257.572 351.847 256.756L351.856 256.748C351.873 256.731 351.907 256.705 351.924 256.688C356.064 252.722 357.025 250.463 357.459 247.024C357.876 243.652 357.136 240.23 356.379 237.147C372.313 239.61 350.104 220.195 364.95 216.442C365.12 216.389 365.293 216.347 365.468 216.314C365.902 216.212 366.336 216.11 366.752 215.992C368.761 215.447 370.683 214.627 372.466 213.554C376.615 211.032 377.984 207.686 380.127 203.915C380.436 203.378 380.566 202.757 380.497 202.141C380.428 201.526 380.164 200.948 379.744 200.492Z" fill="#2F2E41"/>
<path d="M462.534 391.883C462.525 393.37 462.508 395.45 462.44 398.024C462.432 398.38 462.423 398.745 462.415 399.119C462.304 403.849 462.194 407.816 462.015 412.223C462.007 412.529 461.998 412.826 461.981 413.132C461.743 419.281 461.369 426.44 460.723 437.778C459.524 458.721 457.432 440.657 455.332 448.003C455.23 448.368 455.12 448.801 455.017 449.311C454.699 451.16 454.163 452.964 453.419 454.687C452.305 455.349 451.157 455.986 450.026 456.623C446.804 458.415 443.531 460.139 440.232 461.778C438.378 462.695 436.516 463.595 434.645 464.462C434.348 464.598 434.059 464.734 433.77 464.861C424.191 469.286 414.319 473.049 404.223 476.122C402.251 476.717 400.286 477.294 398.297 477.829C396.222 478.407 394.148 478.95 392.047 479.46C376.424 483.291 360.437 485.452 344.356 485.906C342.188 485.974 340.003 485.999 337.809 485.999C336.721 485.999 335.65 485.991 334.561 485.982C334.23 485.982 333.898 485.974 333.567 485.965C332.606 485.94 331.611 485.923 330.608 485.897C311.204 485.293 291.958 482.202 273.343 476.7L272.552 476.47C271.328 476.097 270.112 475.732 268.896 475.341C263.284 473.566 257.755 471.579 252.308 469.379C248.15 467.706 244.04 465.911 239.979 463.995C239.942 463.985 239.907 463.967 239.877 463.944C239.026 463.553 238.168 463.145 237.317 462.729C237.207 462.67 237.088 462.61 236.969 462.551C233.797 461.005 230.66 459.386 227.557 457.693C224.946 451.706 221.273 450.559 218.994 445.294C218.331 443.729 217.852 442.094 217.566 440.419C217.566 440.402 217.557 440.385 217.557 440.36C217.796 443.519 216.546 434.754 217.549 440.326C217.54 440.224 217.532 440.113 217.523 439.986C217.498 439.68 217.464 439.306 217.413 438.839C214.497 410.397 214.684 377.87 213.417 351.068C213.332 349.335 213.244 347.676 213.153 346.091C213.128 345.564 213.094 345.046 213.06 344.537C213.119 344.384 213.187 344.222 213.264 344.07C213.28 344.026 213.3 343.983 213.323 343.942C213.348 343.889 213.377 343.838 213.408 343.789C213.425 343.764 213.451 343.73 213.468 343.704C213.48 343.675 213.494 343.647 213.51 343.619C213.587 343.501 213.672 343.373 213.765 343.254C213.808 343.203 213.842 343.161 213.884 343.118C213.914 343.075 213.948 343.035 213.986 342.999C214.012 342.959 214.044 342.922 214.08 342.889C214.114 342.855 214.148 342.813 214.19 342.77C214.209 342.744 214.232 342.72 214.258 342.702C214.326 342.625 214.4 342.554 214.48 342.49C214.783 342.211 215.107 341.956 215.449 341.726C215.568 341.649 215.695 341.573 215.814 341.488C216.671 340.976 217.574 340.544 218.51 340.197C218.833 340.078 219.156 339.968 219.505 339.849C219.632 339.815 219.751 339.772 219.879 339.73C220.066 339.67 220.253 339.611 220.448 339.568C221.418 339.28 222.463 339.033 223.594 338.804C223.73 338.779 223.875 338.753 224.019 338.719C224.223 338.677 224.436 338.643 224.649 338.609C224.938 338.558 225.235 338.507 225.533 338.456C228.058 338.057 230.924 337.76 234.087 337.564C234.384 337.547 234.682 337.53 234.979 337.513C235.328 337.496 235.676 337.479 236.034 337.462C236.331 337.445 236.637 337.437 236.943 337.428C237.241 337.411 237.547 337.403 237.862 337.394C238.72 337.369 239.605 337.343 240.506 337.326C243.074 337.275 245.778 337.292 248.617 337.352C249.935 337.386 251.279 337.42 252.656 337.479C252.75 337.479 252.835 337.488 252.92 337.488C254.119 337.53 255.326 337.581 256.567 337.649C257.435 337.692 258.31 337.734 259.186 337.785C260.011 337.836 260.844 337.887 261.686 337.946C262.341 337.98 262.995 338.031 263.658 338.074C264.22 338.116 264.781 338.159 265.342 338.193L266.107 338.244C266.524 338.278 266.94 338.303 267.366 338.346C268.301 338.422 269.236 338.498 270.188 338.575C271.132 338.66 272.093 338.745 273.054 338.83C274.015 338.915 274.984 339.008 275.953 339.101C276.055 339.11 276.149 339.118 276.242 339.127C277.127 339.22 278.011 339.305 278.904 339.399C279.108 339.416 279.32 339.433 279.524 339.458C280.375 339.543 281.243 339.643 282.102 339.735C282.366 339.763 282.628 339.791 282.892 339.819C283.565 339.893 284.229 339.956 284.906 340.036C285.799 340.137 286.709 340.231 287.593 340.35C288.282 340.426 288.971 340.503 289.659 340.588C290.739 340.715 291.836 340.851 292.933 340.995C293.349 341.046 293.766 341.097 294.183 341.157C297.312 341.547 300.475 341.98 303.689 342.431C308.56 343.118 313.509 343.866 318.491 344.673C323.483 345.479 328.502 346.331 333.55 347.229C334.825 347.458 336.1 347.687 337.384 347.925C337.962 348.036 338.541 348.146 339.119 348.256C340.105 348.435 341.091 348.622 342.078 348.808C343.064 348.995 344.05 349.182 345.037 349.377C346.21 349.607 347.392 349.836 348.565 350.065C356.294 351.594 363.98 353.225 371.48 354.932C372.712 355.212 373.945 355.501 375.17 355.781C377.618 356.35 380.045 356.927 382.448 357.513C383.111 357.666 383.766 357.828 384.421 357.989C386.053 358.397 387.686 358.804 389.292 359.22L389.573 359.297C390.755 359.586 391.911 359.883 393.068 360.189C395.797 360.902 398.481 361.624 401.12 362.354C402.871 362.838 404.603 363.328 406.315 363.824C408.874 364.562 411.382 365.31 413.822 366.066C414.426 366.252 415.03 366.439 415.625 366.618C417.41 367.17 419.171 367.73 420.88 368.291C422.24 368.732 423.566 369.182 424.876 369.633C426.185 370.083 427.469 370.533 428.727 370.983C429.535 371.272 430.334 371.577 431.134 371.866C432.282 372.291 433.412 372.715 434.518 373.14C434.858 373.267 435.189 373.403 435.521 373.531C435.734 373.624 435.938 373.7 436.142 373.785C436.541 373.947 436.949 374.1 437.341 374.261C437.74 374.414 438.131 374.575 438.522 374.745C438.905 374.898 439.296 375.059 439.67 375.221C440.053 375.374 440.427 375.535 440.801 375.705C441.116 375.832 441.422 375.968 441.719 376.104C442.323 376.367 442.927 376.63 443.513 376.902C443.803 377.038 444.092 377.166 444.381 377.301L445.044 377.607C445.137 377.658 445.231 377.701 445.324 377.743C445.537 377.845 445.758 377.955 445.971 378.057C446.464 378.287 446.948 378.533 447.425 378.762C448.062 379.085 448.683 379.408 449.278 379.722C449.882 380.044 450.469 380.367 451.03 380.681C451.123 380.732 451.208 380.783 451.302 380.834C451.429 380.902 451.557 380.979 451.684 381.047C452.118 381.293 452.535 381.548 452.951 381.794C453.768 382.295 454.541 382.788 455.264 383.28C455.426 383.391 455.579 383.501 455.74 383.603C456.276 383.985 456.786 384.359 457.262 384.741C457.262 384.749 457.262 384.749 457.271 384.749C457.432 384.868 457.585 384.996 457.738 385.115C457.866 385.234 458.002 385.335 458.129 385.454C458.571 385.837 458.98 386.202 459.354 386.575C459.479 386.691 459.598 386.813 459.711 386.941C459.76 386.981 459.806 387.027 459.847 387.076C460.017 387.246 460.17 387.416 460.315 387.586C460.337 387.609 460.357 387.635 460.374 387.662C460.578 387.9 460.765 388.138 460.944 388.376C461.029 388.495 461.122 388.614 461.199 388.732C461.301 388.877 461.403 389.03 461.488 389.174C461.564 389.293 461.632 389.42 461.7 389.539C461.881 389.845 462.035 390.166 462.16 390.499C462.255 390.724 462.332 390.957 462.389 391.195C462.454 391.421 462.502 391.651 462.534 391.883Z" fill="#2F2E41"/>
<path opacity="0.2" d="M462.534 391.883C462.525 393.37 462.508 395.45 462.44 398.024C462.432 398.38 462.415 398.745 462.406 399.119C462.321 402.728 462.194 407.187 462.015 412.223C462.007 412.529 461.998 412.826 461.981 413.132C461.743 419.281 461.369 426.44 460.723 437.778C459.524 458.721 457.432 440.657 455.332 448.003C449.499 444.419 443.105 440.665 436.269 436.81C435.036 436.113 433.792 435.414 432.537 434.712C418.865 427.094 403.594 419.111 387.652 411.204C387.022 410.89 386.385 410.576 385.755 410.27C349.237 392.24 309.377 374.703 277.084 363C270.852 360.741 264.9 358.702 259.305 356.91C247.521 353.148 237.334 350.515 229.495 349.377C221.333 348.188 215.695 348.613 213.417 351.068C213.332 349.335 213.244 347.676 213.153 346.091C213.119 345.564 213.085 345.046 213.051 344.537C213.104 344.397 213.172 344.263 213.238 344.129C213.247 344.109 213.254 344.089 213.264 344.07C213.28 344.026 213.3 343.983 213.323 343.942C213.348 343.889 213.377 343.838 213.408 343.789C213.436 343.729 213.47 343.672 213.51 343.619C213.587 343.501 213.672 343.373 213.765 343.254C213.834 343.165 213.908 343.08 213.986 342.999C214.012 342.959 214.044 342.921 214.08 342.889C214.114 342.855 214.148 342.813 214.19 342.77C214.209 342.743 214.232 342.72 214.258 342.702C214.326 342.625 214.4 342.554 214.48 342.49C214.783 342.211 215.107 341.956 215.449 341.726C215.568 341.649 215.695 341.573 215.814 341.488C216.671 340.976 217.574 340.544 218.51 340.197C218.833 340.078 219.156 339.968 219.505 339.849C219.632 339.815 219.751 339.772 219.879 339.73C220.066 339.67 220.253 339.611 220.448 339.568C221.418 339.28 222.463 339.033 223.594 338.804C223.934 338.736 224.291 338.668 224.649 338.609C224.938 338.558 225.235 338.507 225.533 338.456C228.058 338.057 230.924 337.759 234.086 337.564C234.384 337.547 234.682 337.53 234.979 337.513C235.328 337.496 235.676 337.479 236.034 337.462C236.331 337.445 236.637 337.437 236.943 337.428C237.241 337.411 237.547 337.403 237.862 337.394C238.72 337.369 239.605 337.343 240.506 337.326C243.074 337.284 245.778 337.301 248.617 337.36C249.935 337.386 251.279 337.428 252.656 337.488C252.741 337.488 252.835 337.496 252.92 337.496C254.119 337.53 255.334 337.59 256.567 337.649C257.435 337.692 258.31 337.734 259.186 337.785C260.011 337.836 260.844 337.887 261.686 337.946C262.341 337.98 262.995 338.031 263.658 338.074C264.22 338.116 264.781 338.159 265.342 338.193C266.014 338.244 266.685 338.295 267.366 338.345C268.301 338.422 269.236 338.498 270.188 338.575C271.132 338.66 272.093 338.745 273.054 338.83C274.015 338.914 274.984 339.008 275.953 339.101C276.055 339.11 276.149 339.118 276.242 339.127C277.126 339.22 278.011 339.305 278.904 339.399C283.852 339.9 288.945 340.486 294.183 341.157C297.312 341.556 300.48 341.983 303.689 342.439C308.561 343.127 313.509 343.874 318.492 344.672C323.483 345.479 328.502 346.331 333.55 347.229C334.825 347.458 336.1 347.687 337.384 347.925C338.949 348.214 340.513 348.508 342.078 348.808C343.064 348.995 344.05 349.182 345.037 349.377C346.21 349.607 347.392 349.836 348.565 350.065C356.294 351.594 363.98 353.225 371.48 354.932C372.713 355.212 373.945 355.501 375.17 355.781C377.618 356.35 380.045 356.927 382.448 357.513C383.111 357.675 383.766 357.836 384.421 357.998C386.062 358.405 387.686 358.813 389.292 359.22V359.229C389.386 359.246 389.48 359.271 389.573 359.297C390.746 359.594 391.911 359.891 393.068 360.197C395.797 360.911 398.481 361.63 401.12 362.354C402.871 362.847 404.606 363.331 406.315 363.824C408.874 364.571 411.382 365.318 413.822 366.066C414.426 366.252 415.03 366.439 415.625 366.618C417.411 367.178 419.162 367.736 420.88 368.291C422.24 368.732 423.566 369.182 424.876 369.632C426.185 370.083 427.469 370.533 428.727 370.983C429.544 371.272 430.343 371.569 431.134 371.858C432.29 372.282 433.412 372.707 434.518 373.14C434.858 373.267 435.189 373.403 435.521 373.531C436.142 373.768 436.745 374.015 437.341 374.261C437.74 374.414 438.131 374.575 438.522 374.745C438.905 374.898 439.296 375.059 439.67 375.221C440.053 375.374 440.427 375.535 440.801 375.705C441.116 375.832 441.422 375.968 441.719 376.104C442.323 376.367 442.927 376.63 443.513 376.902C443.803 377.038 444.092 377.166 444.381 377.301L445.044 377.607C445.137 377.658 445.231 377.701 445.325 377.743C446.047 378.083 446.744 378.422 447.425 378.762C448.062 379.085 448.683 379.408 449.278 379.722C449.984 380.095 450.656 380.461 451.302 380.834C451.429 380.902 451.557 380.979 451.684 381.047C452.118 381.293 452.535 381.548 452.951 381.794C453.768 382.295 454.541 382.788 455.264 383.28C455.978 383.773 456.641 384.257 457.262 384.741C457.262 384.749 457.262 384.749 457.271 384.749C457.568 384.987 457.857 385.225 458.129 385.454C458.572 385.836 458.98 386.202 459.354 386.575C459.479 386.691 459.598 386.813 459.711 386.941C459.76 386.981 459.806 387.027 459.847 387.076C460.025 387.272 460.204 387.467 460.374 387.662C460.578 387.9 460.765 388.138 460.944 388.376C461.029 388.495 461.122 388.614 461.199 388.732C461.301 388.877 461.403 389.03 461.488 389.174C461.564 389.293 461.633 389.42 461.701 389.539C461.881 389.845 462.035 390.166 462.16 390.499C462.253 390.725 462.329 390.958 462.389 391.195C462.454 391.421 462.502 391.651 462.534 391.883Z" fill="black"/>
</g>
<defs>
<clipPath id="clip0_11_13">
<rect width="669" height="486" fill="white"/>
</clipPath>
</defs>
</svg>
